PathFileType	4	(X/Y/Z)	E:\3-PhD\Data\MocapData\ElaboratedData\015\pre\dynamicElaborations\RunL1\RunL1.trc
DataRate	CameraRate	NumFrames	NumMarkers	Units	OrigDataRate	OrigDataStartFrame	OrigNumFrames
200	200	4	61	mm	200	2.560000e+02	124
Frame#	Time	FHD			LBHD			RBHD			C7			T10			CLAV			LSHO			LUUPA			LMUPA			LDUPA			LLEP			LMEP			LRAD			LUL			LRFIN			RSHO			RUPA1			RMUPA			RDUPA			RLEP			RMEP			RRAD			RUL			RUFIN			LASI			RASI			USACR			LSACR			RSACR			LTHI1			LTHI2			LTHI3			LTHI4			LLFC			LMFC			LTIB1			LTIB2			LTIB3			LTIB4			LLMAL			LMMAL			LHEE			LMT1			LMT5			LMT2			RTHI			RTHI2			RTHI3			RTHI4			RLFC			RMFC			RTIB1			RTIB2			RTIB3			RTIB4			RLMAL			RMMAL			RHEE			RMT1			RMT2			RMT5		
		X1	Y1	Z1	X2	Y2	Z2	X3	Y3	Z3	X4	Y4	Z4	X5	Y5	Z5	X6	Y6	Z6	X7	Y7	Z7	X8	Y8	Z8	X9	Y9	Z9	X10	Y10	Z10	X11	Y11	Z11	X12	Y12	Z12	X13	Y13	Z13	X14	Y14	Z14	X15	Y15	Z15	X16	Y16	Z16	X17	Y17	Z17	X18	Y18	Z18	X19	Y19	Z19	X20	Y20	Z20	X21	Y21	Z21	X22	Y22	Z22	X23	Y23	Z23	X24	Y24	Z24	X25	Y25	Z25	X26	Y26	Z26	X27	Y27	Z27	X28	Y28	Z28	X29	Y29	Z29	X30	Y30	Z30	X31	Y31	Z31	X32	Y32	Z32	X33	Y33	Z33	X34	Y34	Z34	X35	Y35	Z35	X36	Y36	Z36	X37	Y37	Z37	X38	Y38	Z38	X39	Y39	Z39	X40	Y40	Z40	X41	Y41	Z41	X42	Y42	Z42	X43	Y43	Z43	X44	Y44	Z44	X45	Y45	Z45	X46	Y46	Z46	X47	Y47	Z47	X48	Y48	Z48	X49	Y49	Z49	X50	Y50	Z50	X51	Y51	Z51	X52	Y52	Z52	X53	Y53	Z53	X54	Y54	Z54	X55	Y55	Z55	X56	Y56	Z56	X57	Y57	Z57	X58	Y58	Z58	X59	Y59	Z59	X60	Y60	Z60	X61	Y61	Z61	
271	1.350000	-1855.031899	1495.714041	140.217354	-1971.947899	1576.639362	128.521816	-1969.023120	1592.678691	253.195819	-2137.863974	1497.675861	253.326853	-2274.339933	1194.361908	285.353256	-2043.294044	1372.884055	200.897630	-2143.430714	1482.896199	65.219656	-2271.817299	1354.621561	-20.247095	-2263.270087	1307.047625	-23.011080	-2319.292511	1308.273485	-41.162274	-2392.231963	1264.570732	-47.431149	-2389.171350	1235.631194	47.480567	-2244.108961	1034.096873	-76.485834	-2197.417178	1076.921916	-40.164745	-2129.336054	1029.226684	-74.168683	-2035.378668	1460.660599	390.449351	-2057.836134	1313.936614	506.517895	-2033.718392	1275.697316	493.264338	-2063.799629	1251.179444	538.621312	-2073.860489	1140.936201	555.293343	-2156.970240	1139.478690	524.763520	-1970.563789	1056.777523	320.801334	-1953.306458	991.840168	358.144497	-1905.055346	1038.387456	276.191785	-2169.139125	1009.669281	141.238049	-2141.578874	972.672363	380.570547	-2310.838622	1099.916582	285.656652	-2325.244474	1068.760311	258.668546	-2313.975644	1067.780685	314.291563	-2127.462643	738.190397	65.458040	-2055.444901	692.336049	66.532339	-2014.944816	718.400736	74.513409	-2045.055670	636.260738	90.926613	-2007.111178	558.985796	103.509529	-2003.536823	551.589767	223.733107	-1928.177288	411.075420	128.452871	-1974.552119	358.692723	76.696441	-1938.657651	362.495046	101.423037	-1924.553267	282.218806	132.336036	-1960.928435	142.132488	116.565361	-1946.454279	159.741874	200.796325	-2012.874104	71.798729	174.683199	-1812.236538	148.134105	180.422836	-1837.192738	95.769395	90.938976	-1811.978436	142.241205	132.634247	-2228.673719	779.000877	431.592582	-2218.827090	718.290148	414.352512	-2190.930914	711.542620	395.271671	-2274.968492	654.706045	413.410733	-2419.174496	519.650440	384.876412	-2420.732433	507.383308	261.613067	-2598.299375	389.418106	356.686037	-2691.788220	432.545214	398.269706	-2679.288893	388.388367	384.887309	-2723.159315	361.862817	354.482360	-2808.472089	379.043394	385.652375	-2795.426098	380.385150	301.843233	-2861.725319	458.927604	340.518545	-2861.140570	242.341302	294.348560	-2861.124774	241.240145	337.561956	-2895.748138	274.178378	393.392936	
272	1.355000	-1831.255715	1493.235381	138.868731	-1947.815502	1574.507327	126.521752	-1945.207301	1590.993668	251.084655	-2114.307504	1496.570462	250.985278	-2251.361579	1193.638250	283.916720	-2020.142946	1371.326009	199.647473	-2119.842037	1479.462555	62.426147	-2245.498065	1347.239422	-23.412788	-2235.725866	1299.918226	-25.105375	-2291.389379	1299.247948	-44.225393	-2363.685924	1254.513299	-51.002705	-2361.143702	1226.645544	44.542916	-2209.845797	1028.197190	-76.154114	-2164.537086	1072.546449	-39.885173	-2095.146332	1026.970745	-73.216159	-2012.298409	1459.072889	388.895521	-2037.435892	1314.118264	506.665908	-2013.762274	1275.335478	493.883063	-2044.314817	1251.795916	539.438794	-2055.609557	1141.684906	557.803916	-2138.242799	1141.678241	526.402202	-1952.552119	1042.135044	328.904351	-1938.003819	978.538998	369.802378	-1886.746730	1019.124824	286.902331	-2145.621087	1009.204123	140.055229	-2117.146555	972.963562	380.092287	-2287.549299	1097.678767	285.037353	-2301.858784	1066.354354	258.243011	-2290.351282	1065.711333	313.876611	-2107.823206	733.757215	64.375042	-2036.664432	686.645948	64.929889	-1995.420495	711.809758	72.520197	-2026.799542	630.636098	89.636196	-1989.420105	553.151892	102.059444	-1985.331808	545.420217	222.905569	-1911.132934	405.125998	126.264895	-1958.777013	352.508028	75.610297	-1922.175510	356.503381	99.412715	-1907.753510	276.260378	130.450507	-1944.996756	136.096699	114.823075	-1929.193361	153.766807	198.792687	-1996.968912	67.125239	173.771608	-1795.512261	140.473322	176.680542	-1822.395261	87.692316	87.807243	-1795.900106	134.109805	128.856765	-2202.155528	777.649997	431.716187	-2190.940149	717.206013	415.098641	-2162.830364	710.863506	396.040202	-2245.719009	652.251717	414.192362	-2386.817329	516.214516	385.340114	-2387.726946	502.461009	262.530290	-2568.914331	392.094666	357.459907	-2661.320893	439.550629	397.282651	-2650.216162	394.655893	384.678790	-2694.763009	369.104502	354.324525	-2779.080009	389.939457	384.318429	-2765.705861	389.771292	300.570054	-2829.330469	470.990891	338.024686	-2835.734669	253.673911	294.678904	-2835.818298	252.994264	337.832265	-2869.641907	287.984993	392.927601	
273	1.360000	-1807.508144	1490.581197	137.777523	-1923.669363	1572.241614	124.710761	-1921.480199	1589.141346	249.184893	-2090.927641	1495.209237	248.640286	-2228.321618	1192.439798	282.342908	-1997.011939	1369.523712	198.458375	-2096.283654	1475.762264	59.633275	-2218.956063	1339.591630	-26.589563	-2207.885253	1292.591389	-27.248626	-2263.131958	1289.956570	-47.348989	-2334.582639	1244.010832	-54.674425	-2332.775923	1217.216022	41.447258	-2175.203274	1022.125650	-75.761344	-2131.363979	1067.938414	-39.403565	-2060.682278	1024.500540	-72.039724	-1989.434288	1457.196841	387.471804	-2017.145381	1313.957898	506.703314	-1994.091899	1274.586475	494.235146	-2024.962963	1252.078193	540.124892	-2037.636072	1142.239085	560.286925	-2119.705436	1143.544905	527.888837	-1935.103546	1027.705401	337.849501	-1923.082327	965.750619	382.278215	-1869.058125	1000.335659	298.824435	-2122.030786	1008.499885	138.703271	-2092.784701	972.993759	379.580979	-2264.255862	1094.993711	284.336218	-2278.447524	1063.521492	257.730785	-2266.747192	1063.196480	313.380524	-2088.235616	729.268176	63.349697	-2017.919767	680.986751	63.414298	-1976.035211	705.332593	70.510127	-2008.601921	625.006715	88.303201	-1971.816150	547.410496	100.607959	-1967.313513	539.745279	222.038864	-1894.707477	398.973372	124.537473	-1943.323897	346.500218	74.435413	-1906.280608	350.427820	97.676255	-1892.267241	270.092815	128.635400	-1930.942016	130.046285	113.277806	-1913.819100	147.477137	196.981805	-1983.473192	62.981416	172.782850	-1780.796693	131.561546	173.398019	-1809.821500	78.971886	84.896921	-1781.745048	124.887545	125.517752	-2175.517049	776.148310	431.913005	-2162.908484	715.982670	415.972649	-2134.613506	710.052005	396.926424	-2216.262199	649.666805	415.209083	-2354.039831	512.550614	386.223894	-2354.291450	497.310196	263.771918	-2538.639371	394.442712	358.209648	-2629.842175	445.925469	396.296968	-2620.104860	400.387897	384.377877	-2665.246525	375.861741	354.054888	-2748.476035	400.162126	382.784315	-2734.814351	398.516142	299.141465	-2795.972399	482.141852	335.337461	-2808.710906	264.279894	294.804710	-2808.868898	264.031154	337.900384	-2841.911518	300.917208	392.249248	
274	1.365000	-1783.787607	1487.809956	136.935367	-1899.523142	1569.877789	123.091000	-1897.859459	1587.149404	247.496398	-2067.734830	1493.594564	246.291412	-2205.208412	1190.768372	280.634701	-1973.870702	1367.497472	197.311733	-2072.763810	1471.827334	56.852957	-2192.189705	1331.714664	-29.764937	-2179.764352	1285.102375	-29.432569	-2234.544042	1280.468091	-50.512499	-2304.914730	1233.127020	-58.395794	-2304.060022	1207.373634	38.251824	-2140.203669	1015.939203	-75.305109	-2097.904500	1063.128399	-38.733989	-2025.960993	1021.822264	-70.625872	-1966.801497	1455.053986	386.187481	-1996.943647	1313.437842	506.640229	-1974.675668	1273.443146	494.340193	-2005.712978	1252.008377	540.692942	-2019.944308	1142.621906	562.751741	-2101.368170	1145.051215	529.255231	-1918.198476	1013.696819	347.559188	-1908.476661	953.667231	395.463974	-1851.997465	982.253189	311.761059	-2098.405272	1007.482853	137.203325	-2068.500303	972.743924	379.016567	-2240.955769	1091.913642	283.556771	-2255.017180	1060.313669	257.135398	-2243.164502	1060.284382	312.805608	-2068.711470	724.738095	62.398841	-1999.215874	675.366531	62.008425	-1956.816745	698.996409	68.531355	-1990.493297	619.367136	86.935899	-1954.367629	541.653431	99.168091	-1949.478121	534.514797	221.136639	-1878.864698	392.535359	123.259676	-1928.162416	340.613664	73.170776	-1890.959399	344.186185	96.228769	-1878.020326	263.647006	126.928894	-1918.612873	124.049581	112.027102	-1900.247879	140.919540	195.476839	-1972.201076	59.396935	171.761810	-1768.005772	121.690902	170.640514	-1799.313680	69.952116	82.225473	-1769.428437	114.891553	122.697838	-2148.734503	774.496247	432.166909	-2134.710106	714.614634	416.948648	-2106.256336	709.114934	397.901598	-2186.574338	646.959798	416.431309	-2320.831187	508.665682	387.499835	-2320.409518	491.956986	265.297906	-2507.497372	396.428988	358.920822	-2597.401096	451.624152	395.327175	-2588.994197	405.550623	383.996962	-2634.649910	382.097339	353.682867	-2716.753903	409.649877	381.079213	-2702.808958	406.564045	297.583486	-2761.786399	492.320431	332.471834	-2780.086740	274.076305	294.733418	-2780.310786	274.270529	337.779200	-2812.637494	312.871159	391.364595	
